<?xml version="1.0" encoding="utf-8"?>
<!-- Generator: Adobe Illustrator 20.0.0, SVG Export Plug-In . SVG Version: 6.00 Build 0)  -->
<!DOCTYPE svg PUBLIC "-//W3C//DTD SVG 1.1//EN" "http://www.w3.org/Graphics/SVG/1.1/DTD/svg11.dtd">
<svg version="1.1" id="Layer_1" xmlns="http://www.w3.org/2000/svg" xmlns:xlink="http://www.w3.org/1999/xlink" x="0px" y="0px"
	 viewBox="0 0 736.2 228.8" style="enable-background:new 0 0 736.2 228.8;" xml:space="preserve">
<style type="text/css">
	.st0{fill:#0091DA;}
	.st1{fill:#FFFFFF;}
	.st2{fill:#0099C7;}
</style>
<path class="st0" d="M422.9,218.1c66.5-23.4,107.8-77.9,92.3-121.6c-15.5-43.7-82.1-60.1-148.6-36.7s-107.8,77.9-92.3,121.6
	C289.8,225.1,356.3,241.5,422.9,218.1"/>
<g>
	<path class="st0" d="M521.8,165.2l6.4-7.1c3.8,3.2,9.4,6,15.9,6c6.3,0,10.1-1.6,10.1-5.8c0-4.1-5.2-5.3-11.3-6.7
		c-8.7-2-19.1-4.3-19.1-16c0-8.8,7.6-14.8,18.8-14.8c9.6,0,15.5,2.8,20.8,7.1l-5.6,7.6c-3.7-3-9.7-5.5-14.3-5.5
		c-6.5,0-8.6,2.3-8.6,5.1c0,4.1,5.1,5.3,11.1,6.6c8.7,1.9,19.3,4.1,19.3,15.9c0,10.6-9.6,15.6-21.2,15.6
		C534.8,173.2,526.4,169.8,521.8,165.2z"/>
	<path class="st0" d="M575.3,158.9V131h-8.8v-9.3h8.8v-17.6H587v17.6h13.1v9.3H587v25c0,5.4,1.6,7.6,7.4,7.6c1.7,0,3.9-0.3,5.1-0.7
		v9.2c-1.2,0.3-5.6,0.7-8.6,0.7C578,172.8,575.3,168,575.3,158.9z"/>
	<path class="st0" d="M602,146.9c0-18.6,12.3-26.2,24.7-26.2c12.3,0,24.7,7.6,24.7,26.2c0,18.4-12.4,26.2-24.7,26.2
		S602,165.4,602,146.9z M639.6,146.9c0-9.4-4-16.2-12.9-16.2c-8.5,0-12.9,6.1-12.9,16.2c0,9.6,3.9,16.4,12.9,16.4
		C635.2,163.4,639.6,157.3,639.6,146.9z"/>
	<path class="st0" d="M657.9,172.1v-50.4h11.7v8.3h0.2c3.1-5,8.6-9.2,18.2-9.2h0.8l-0.4,10.7c-0.6-0.1-2.5-0.2-3.1-0.2
		c-7.5,0-12.3,3.5-15.6,8.9v31.9H657.9z"/>
	<path class="st0" d="M689.9,146.9c0-19.2,13.6-26.2,24.1-26.2c11.4,0,22.2,6.7,22.2,27.3v2.8h-34.6c0.5,9.1,6.1,13.1,13.5,13.1
		c6.6,0,10.4-2.2,14.2-5.9l6.2,6.1c-5.2,5.8-12.2,9.1-21.3,9.1C701.6,173.2,689.9,165.5,689.9,146.9z M725.4,142
		c-0.7-7.7-4.5-11.8-11.5-11.8c-5.7,0-11,3.2-12.1,11.8H725.4z"/>
</g>
<g>
	<path class="st0" d="M75.9,189.4l2.7-9.4c1.4,0.4,4.5,1,8.6,1c4.2,0,6.4-1.6,8-5.7l1.4-3.7l-19.5-50.7h12.2l13.1,36.8h0.2l13-36.8
		h11.6l-21.6,55.9c-3.3,8.8-7.7,14.1-17.7,14.1C82,190.9,78.4,190.1,75.9,189.4z"/>
	<path class="st0" d="M127.5,146.2c0-18.6,12.3-26.2,24.7-26.2c12.3,0,24.7,7.6,24.7,26.2c0,18.4-12.4,26.2-24.7,26.2
		C139.9,172.4,127.5,164.6,127.5,146.2z M165.1,146.2c0-9.4-4-16.2-12.9-16.2c-8.5,0-12.9,6.1-12.9,16.2c0,9.6,3.9,16.4,12.9,16.4
		C160.7,162.6,165.1,156.5,165.1,146.2z"/>
	<path class="st0" d="M183.2,157.1v-36.2H195v33.4c0,5.6,2.4,8.2,7.5,8.2c5.2,0,9.4-2.7,13.7-6.6v-35h11.8v50.4h-11.8v-6.8
		c-3.2,3.4-9.3,7.8-18.5,7.8C188.9,172.3,183.2,167.1,183.2,157.1z"/>
	<path class="st0" d="M236.2,171.4v-50.4H248v8.3h0.2c3.1-5,8.6-9.2,18.2-9.2h0.8l-0.4,10.7c-0.6-0.1-2.5-0.2-3.1-0.2
		c-7.5,0-12.3,3.5-15.6,8.9v31.9H236.2z"/>
</g>
<g>
	<path class="st1" d="M322.6,166.8v5.6h-11.7v-70.3h11.7v26.5c3.3-4,8.6-7.6,16.1-7.6c11.5,0,20,8.6,20,26.1s-8.7,26-21.7,26
		C331.7,173.2,326.3,171,322.6,166.8z M347,147.2c0-10.6-4.6-16.2-12.1-16.2c-4.9,0-9.5,3-12.3,6.4v20.2c3.1,4.1,7.7,6.3,11.9,6.3
		C343.4,163.8,347,158.4,347,147.2z"/>
	<path class="st1" d="M364.9,172.4v-70.3h11.8v70.3H364.9z"/>
	<path class="st1" d="M384.7,158.2V122h11.8v33.4c0,5.6,2.4,8.2,7.5,8.2s9.4-2.7,13.7-6.6v-35h11.8v50.4h-11.8v-6.8
		c-3.2,3.4-9.3,7.8-18.5,7.8C390.5,173.3,384.7,168.1,384.7,158.2z"/>
	<path class="st1" d="M436.2,147.2c0-19.2,13.6-26.2,24.1-26.2c11.4,0,22.2,6.7,22.2,27.3v2.8h-34.6c0.5,9.1,6.1,13.1,13.5,13.1
		c6.6,0,10.4-2.2,14.2-5.9l6.2,6.1c-5.2,5.8-12.2,9.1-21.3,9.1C447.9,173.4,436.2,165.7,436.2,147.2z M471.7,142.3
		c-0.7-7.7-4.5-11.8-11.5-11.8c-5.7,0-11,3.2-12.1,11.8H471.7z"/>
</g>
<g>
	<path class="st0" d="M90.4,96.3c0.9,0,2.2,0.1,2.2-1.1c0-0.9-0.7-1-1.5-1h-1.8v2.1H90.4z M89.3,99.9h-0.8v-6.4h2.8
		c1.7,0,2.2,0.6,2.2,1.8c0,1.2-0.9,1.7-2,1.8l1.9,2.8h-0.9l-1.8-2.8h-1.4V99.9z M95.3,96.7c0-2.7-2-4.7-4.7-4.7
		c-2.8,0-4.7,2-4.7,4.7c0,2.8,2,4.7,4.7,4.7C93.3,101.5,95.3,99.5,95.3,96.7 M84.9,96.7c0-3.1,2.5-5.6,5.6-5.6
		c3.1,0,5.6,2.5,5.6,5.6c0,3.1-2.5,5.6-5.6,5.6C87.4,102.3,84.9,99.8,84.9,96.7"/>
	<path class="st0" d="M188.7,96.3c0.9,0,2.2,0.1,2.2-1.1c0-0.9-0.7-1-1.5-1h-1.8v2.1H188.7z M187.6,99.9h-0.8v-6.4h2.8
		c1.7,0,2.2,0.6,2.2,1.8c0,1.2-0.9,1.7-2,1.8l1.9,2.8h-0.9l-1.8-2.8h-1.4V99.9z M193.6,96.7c0-2.7-2-4.7-4.7-4.7
		c-2.8,0-4.7,2-4.7,4.7c0,2.8,2,4.7,4.7,4.7C191.6,101.5,193.6,99.5,193.6,96.7 M183.3,96.7c0-3.1,2.5-5.6,5.6-5.6
		c3.1,0,5.6,2.5,5.6,5.6c0,3.1-2.5,5.6-5.6,5.6C185.8,102.3,183.3,99.8,183.3,96.7"/>
	<polygon class="st0" points="72.8,101.9 72.8,74 100.8,74 100.8,29.3 72.8,29.3 72.8,1.4 28.1,1.4 28.1,29.3 0,29.3 0,74 28.1,74 
		28.1,101.9 	"/>
	<path class="st1" d="M24.5,42l18.6,1.8c3.5,0.5,3.9,3.9,3,5.9L33.4,73.5l0,0c-6.5-5.1-10.6-12.9-10.6-21.7
		C22.8,48.3,23.4,45,24.5,42L24.5,42z"/>
	<path class="st1" d="M50.6,27.6c-3.3,0-4.3,3.7-2.9,5.6c1.3,1.7,1.6,2.2,1.5,3.8c-0.1,1.3-1.3,3-4.1,3H25.4
		c4.4-9.4,14-15.9,25.1-15.9"/>
	<path class="st0" d="M27.3,46.1l14.1,1.3c1,0.1,1.1,0.5,0.9,1.1l-9.9,18.7c-3.6-4.2-5.8-9.6-5.8-15.5
		C26.6,49.8,26.9,47.9,27.3,46.1"/>
	<path class="st0" d="M43.9,28.9c-1.4,2.3-0.3,5.4,1.1,6.8c0.2,0.2,0.1,0.5-0.1,0.6l-12.5,0C35.3,32.8,39.3,30.2,43.9,28.9"/>
	<path class="st1" d="M76.5,42l-18.6,1.8c-3.5,0.5-3.9,3.9-3,5.9l12.7,23.8l0,0c6.5-5.1,10.6-12.9,10.6-21.7
		C78.2,48.3,77.6,45,76.5,42L76.5,42z"/>
	<path class="st1" d="M50.4,27.6c3.3,0,4.3,3.7,2.9,5.6c-1.3,1.7-1.6,2.2-1.5,3.8c0.1,1.3,1.3,3,4.1,3h19.7
		c-4.4-9.4-14-15.9-25.1-15.9"/>
	<path class="st0" d="M73.7,46.1l-14.1,1.3c-1,0.1-1.1,0.5-0.9,1.1l9.9,18.7c3.6-4.2,5.8-9.6,5.8-15.5
		C74.4,49.8,74.1,47.9,73.7,46.1"/>
	<path class="st0" d="M57.1,28.9c1.4,2.3,0.3,5.4-1.1,6.8c-0.2,0.2-0.1,0.5,0.1,0.6l12.5,0C65.7,32.8,61.7,30.2,57.1,28.9"/>
	<path class="st1" d="M50.5,79.3c5.6,0,10.9-1.7,15.2-4.5l0,0L52.2,54.7c-0.9-1.3-2.5-1.4-3.5,0L35.3,74.8l0,0
		C39.6,77.6,44.9,79.3,50.5,79.3"/>
	<path class="st0" d="M156.7,103c19.4-10.7,31.1-27.6,37.2-46.3c6.3-19.3,5.1-42.4-2.1-56.7c-11.1,5.6-22.1,8.5-35.1,8.6
		c-12.9,0-24-3.1-35.1-8.6c-7.3,14.3-8.4,37.4-2.1,56.7C125.6,75.3,137.3,92.3,156.7,103"/>
	<path class="st1" d="M156.7,94.3c16-9.8,24.5-23.9,29.9-39.8c4.8-14.1,6-30.7,0.7-43.6c-8,2.7-12.6,3.6-17,4.2
		c-4,0.6-7.7,1-13.6,1.1h0c-5.9-0.1-9.5-0.5-13.6-1.1c-4.3-0.7-9-1.5-17-4.2c-5.3,12.9-4.1,29.4,0.7,43.6
		C132.3,70.4,140.8,84.5,156.7,94.3L156.7,94.3z"/>
	<path class="st0" d="M156.7,90.4c10.8-6.7,23-22.1,27.9-42.3c2.6-10.7,3.3-22.7-0.1-32.3c-4.8,1.3-9.3,2.3-14,3
		c-4.7,0.6-9.3,1.1-13.8,1.1h0c-4.5,0-9.2-0.5-13.8-1.1c-4.7-0.6-9.2-1.7-14-3c-3.4,9.5-2.7,21.6-0.1,32.3
		C133.7,68.4,145.9,83.7,156.7,90.4L156.7,90.4z"/>
	<path class="st1" d="M145.2,27.2c-3.6,1.9-5.3,6.6-3.5,10.4c1.5,3.1,4.4,4.6,7.8,5.5c1.6,0.4,3.1,0.7,4.9,0.8
		c2.1,0.2,3.9,0.3,5.9,0.8c0.4,0.1,1.1,0.4,1.3,0.8c0.4,0.8,0.2,1.7-0.8,2.1c0,1.7-0.2,5.3-0.2,5.3s8.6-0.9,7.1-8.4
		c-0.3-1.8-2.2-3.5-3.8-4.4c-4.2-2.2-8.9-1.4-13.2-2.8c-1.2-0.4-2.7-1-3.1-2.4c-0.2-0.9-0.2-1.8,0.4-2.2c1-0.6,1.7,0.3,3.3,0.7
		c1,0.2,2.1,0.2,2.9,0c0.3-0.1,0.8-0.2,0.9-0.5c0-0.3-0.6-0.4-0.8-0.5c-0.5-0.3-0.9-0.2-1.4-0.4c-0.9-0.3-1.8-0.9-2.7-1.4
		c0.8-0.2,2.2-0.2,3.1-0.1c0.7,0.1,2.7,0.1,3.3-0.1c0.1,0,0.4-0.2,0.3-0.4c-0.2-0.4-0.6-0.6-0.9-0.9c-0.6-0.8-1.1-1.6-2.1-2
		C151.1,26,148,25.7,145.2,27.2"/>
	<path class="st1" d="M159.1,53.8l0.2-7.6c0,0-1.1-0.4-2.7-0.6c-2.1-0.1-3-0.2-3-0.2l0,0.7c0,0-1.1,0.3-1.3,0.5
		c-0.1,0.1-0.3,0.3,0,0.7c1.1,2,1.8,3,2.3,5.7C156.3,53.3,157.4,53.5,159.1,53.8"/>
	<path class="st1" d="M147.1,52.6c-0.2,3.5,2.4,5.6,6,6.2c2,0.3,3.9,0.6,6,0.8c0.3,0,0.9,0.1,1.3,0.3c0.4,0.2,0.6,0.5,0.6,0.7
		c0.1,0.4,0,0.5-0.2,0.8c-0.2,0.3-0.5,0.3-0.5,0.3l-0.1,4.2c0,0,1.4-0.1,2.8-0.9c1.3-0.8,2.1-1.8,2.4-3c0.3-1.4,0.1-2.6-0.9-4
		c-0.7-0.9-1.9-1.6-3.1-2c-1.8-0.6-5.2-1-7.8-1.4c-0.4-0.1-1-0.3-1.1-0.9c-0.1-0.6,0.7-0.8,0.7-0.8s-0.2-0.6-0.5-1.6
		c-0.2-0.5-0.7-1.6-1.3-2.6C149.7,49.5,147.3,50.2,147.1,52.6"/>
	<path class="st1" d="M158.9,60.9l-0.1,6.9l-1.6-0.9l-1.6-0.8l-0.4-5.7C156.9,60.7,157.5,60.7,158.9,60.9"/>
	<path class="st1" d="M150.4,64.7c-1,2.4-0.1,4.6,2.4,5.7c1.1,0.5,2.6,0.9,3.8,1.4c1.1,0.4,3.2,1.8,3.4,2.4c0.1,0.4-0.2,0.7-0.2,0.7
		l-0.1,2.9c0,0,1.1-0.3,2-1c0.8-0.7,1.5-1.6,1.5-3.1c0-1.6-0.8-2.6-3-3.9c-1.8-1-4.2-2-5.9-2.7c-0.1-0.1-0.7-0.4-0.5-1
		c0.1-0.3,0.4-0.4,0.4-0.4l-0.3-3.4c0,0-0.9,0.3-1.5,0.6C151.8,63.2,150.8,63.8,150.4,64.7"/>
	<path class="st1" d="M158.7,74.8c0-0.2-0.1-0.3-0.2-0.4c-0.5-0.5-1.1-0.9-1.3-1c-0.5-0.3-1.6-0.7-1.6-0.7s0.2,7.4,0.3,11.4
		c0,0.9,0.4,1.2,1.3,1.2c1,0,1.2-0.4,1.2-1C158.5,83,158.6,77.7,158.7,74.8"/>
	<path class="st1" d="M159.8,25.4c0.4,0.3,0.4,0.4,0.5,0.9c0.3,1.2-0.2,3,0,3.9c0.1,0.3,0.4,0.3,0.6,0.2c1.7-0.9,2.9-2.5,4.6-3.2
		c0.8-0.3,3.1,0.8,2.6,2.5c-0.2,0.8-0.4,0.8-1,1.3c-1.1,1-2.5,2-3.9,3.3c-0.9,0.9-1.8,1.4-2.4,2.4c-0.1,0.2-0.5,0.9-0.5,0.9
		c-2.4-0.5-4.8-0.5-6.7-0.9l-0.1-2c0,0,2.4,0,2.6-1.5c0-0.1,0-0.5-0.3-0.7c-0.3-0.2-1-0.5-1.2-0.6c1.8,0.3,3.4,1,5.3,1.8
		c0.1-0.2-0.2-0.9-0.3-1c-0.3-0.3-0.5-0.5-1.2-0.7c-1.1-0.3-3.9-0.6-3.9-0.6s1,0,2.3-0.1c0.6-0.1,1.2-0.3,1.3-0.5
		c0.1-0.3,0-0.7-0.5-1.2c-0.3-0.3-0.5-0.6-0.8-0.9c-0.3-0.4-0.6-1.1-1.1-1.5c-0.6-0.7-2.4-1.4-2.4-1.4s-0.2-1.2,0.1-1.8
		c0.2-0.4,1.2-0.5,1.5-0.3C156.5,24.3,158,25.1,159.8,25.4"/>
	<path class="st2" d="M153.6,28.2c-0.4,0.2-0.6,0.5-1,0.6c-0.8,0.1-0.7-0.5-1.2-0.9c-0.3-0.2-0.6,0.1-0.9-0.5c1.1,0,2.9,0,3.7,0.9
		C154.1,28.2,153.7,28.2,153.6,28.2"/>
	<path class="st0" d="M50.1,59.2c0.2-0.3,0.5-0.3,0.8,0l9.3,14.2c-3,1.3-6.3,2-9.7,2s-6.7-0.7-9.7-2L50.1,59.2
		c0.3-0.3,0.6-0.3,0.8,0"/>
	<path class="st1" d="M153.6,77.2c-0.4,0.4-1.4,1.4-1.2,3.3c0.1,1.2,0.4,1.6,0.8,2.4c0.3,0.6,0.8,0.8,1,0c0.1-0.5-0.3-0.9-0.2-2
		c0.2-1,0.7-1.3,0.7-1.3l-0.2-3.2C154.6,76.5,154.1,76.8,153.6,77.2"/>
</g>
</svg>
